# Proposal 106 sample massing: higher_tower_18st
# Higher: 44 x 20 m footprint, 6-storey shoulder with an 18-storey tower (57.6 m). The app reads it as one block of its outline.
# Units: metres. Up axis: Z (Rhino default).
o higher_tower_18st
v -22.000 -10.000 0.000
v 22.000 -10.000 0.000
v 22.000 10.000 0.000
v -22.000 10.000 0.000
v -22.000 -10.000 19.200
v 22.000 -10.000 19.200
v 22.000 10.000 19.200
v -22.000 10.000 19.200
f 1 4 3 2
f 5 6 7 8
f 1 2 6 5
f 2 3 7 6
f 3 4 8 7
f 4 1 5 8
v 10.000 -10.000 19.200
v 22.000 -10.000 19.200
v 22.000 10.000 19.200
v 10.000 10.000 19.200
v 10.000 -10.000 57.600
v 22.000 -10.000 57.600
v 22.000 10.000 57.600
v 10.000 10.000 57.600
f 9 12 11 10
f 13 14 15 16
f 9 10 14 13
f 10 11 15 14
f 11 12 16 15
f 12 9 13 16
