# Proposal 106 sample massing: mid_block_7st
# Mid: 40 x 16 m footprint, 7 storeys (22.4 m) with a set-back top floor. About 90-110 homes.
# Units: metres. Up axis: Z (Rhino default).
o mid_block_7st
v -20.000 -8.000 0.000
v 20.000 -8.000 0.000
v 20.000 8.000 0.000
v -20.000 8.000 0.000
v -20.000 -8.000 19.200
v 20.000 -8.000 19.200
v 20.000 8.000 19.200
v -20.000 8.000 19.200
f 1 4 3 2
f 5 6 7 8
f 1 2 6 5
f 2 3 7 6
f 3 4 8 7
f 4 1 5 8
v -18.000 -6.000 19.200
v 18.000 -6.000 19.200
v 18.000 6.000 19.200
v -18.000 6.000 19.200
v -18.000 -6.000 22.400
v 18.000 -6.000 22.400
v 18.000 6.000 22.400
v -18.000 6.000 22.400
f 9 12 11 10
f 13 14 15 16
f 9 10 14 13
f 10 11 15 14
f 11 12 16 15
f 12 9 13 16
